<svg width="54" height="55" viewBox="0 0 54 55" fill="none" xmlns="http://www.w3.org/2000/svg">
<path d="M26.6786 16.4168C24.322 16.4129 22.0146 17.092 20.0358 18.372C18.057 19.652 16.4916 21.478 15.5288 23.629C14.566 25.7801 14.2472 28.1641 14.611 30.4925C14.9747 32.821 16.0054 34.9941 17.5784 36.749L15.3232 40.1318C15.134 40.4155 15.0652 40.7627 15.132 41.0972C15.1988 41.4316 15.3957 41.7258 15.6794 41.9151C15.9631 42.1043 16.3103 42.1731 16.6448 42.1063C16.9792 42.0395 17.2734 41.8426 17.4626 41.5589L19.5044 38.4951C21.5848 40.0219 24.0981 40.8452 26.6786 40.8452C29.2592 40.8452 31.7725 40.0219 33.8529 38.4951L35.8946 41.5589C36.0839 41.8426 36.3781 42.0395 36.7125 42.1063C37.047 42.1731 37.3942 42.1043 37.6779 41.9151C37.9616 41.7258 38.1585 41.4316 38.2253 41.0972C38.2921 40.7627 38.2233 40.4155 38.0341 40.1318L35.7789 36.749C37.3519 34.9941 38.3826 32.821 38.7463 30.4925C39.1101 28.1641 38.7913 25.7801 37.8285 23.629C36.8657 21.478 35.3003 19.652 33.3215 18.372C31.3427 17.092 29.0353 16.4129 26.6786 16.4168ZM17.0358 28.631C17.0358 26.7239 17.6013 24.8595 18.6609 23.2738C19.7205 21.688 21.2265 20.4521 22.9885 19.7222C24.7505 18.9924 26.6893 18.8014 28.5599 19.1735C30.4304 19.5456 32.1486 20.4639 33.4972 21.8125C34.8458 23.1611 35.7642 24.8793 36.1362 26.7498C36.5083 28.6204 36.3173 30.5592 35.5875 32.3212C34.8576 34.0832 33.6217 35.5892 32.0359 36.6488C30.4502 37.7084 28.5858 38.2739 26.6786 38.2739C24.122 38.2712 21.6709 37.2544 19.8631 35.4466C18.0553 33.6388 17.0385 31.1877 17.0358 28.631Z" fill="#6DA015"/>
<path d="M35.302 14.222C35.0595 13.9878 34.7347 13.8582 34.3976 13.8611C34.0605 13.8641 33.738 13.9993 33.4996 14.2377C33.2612 14.476 33.126 14.7985 33.1231 15.1356C33.1202 15.4727 33.2498 15.7975 33.484 16.04L38.6268 21.1829C38.8693 21.4171 39.1941 21.5467 39.5312 21.5437C39.8683 21.5408 40.1908 21.4056 40.4292 21.1672C40.6675 20.9288 40.8028 20.6063 40.8057 20.2692C40.8086 19.9321 40.679 19.6073 40.4448 19.3649L35.302 14.222Z" fill="#6DA015"/>
<path d="M15.3746 20.54L19.8746 16.04C20.1088 15.7975 20.2384 15.4727 20.2354 15.1356C20.2325 14.7985 20.0973 14.476 19.8589 14.2377C19.6205 13.9993 19.2981 13.8641 18.9609 13.8611C18.6238 13.8582 18.2991 13.9878 18.0566 14.222L13.5566 18.722C13.4338 18.8406 13.3358 18.9825 13.2684 19.1393C13.2011 19.2962 13.1656 19.4649 13.1641 19.6356C13.1626 19.8063 13.1952 19.9756 13.2598 20.1337C13.3245 20.2917 13.4199 20.4352 13.5406 20.5559C13.6614 20.6767 13.8049 20.7721 13.9629 20.8368C14.1209 20.9014 14.2902 20.9339 14.4609 20.9325C14.6317 20.931 14.8004 20.8955 14.9572 20.8281C15.1141 20.7607 15.256 20.6628 15.3746 20.54Z" fill="#6DA015"/>
<path d="M31.5006 27.3455H28.2863V24.1312C28.2863 23.7902 28.1508 23.4632 27.9097 23.222C27.6686 22.9809 27.3416 22.8455 27.0006 22.8455C26.6596 22.8455 26.3325 22.9809 26.0914 23.222C25.8503 23.4632 25.7148 23.7902 25.7148 24.1312V27.3455H22.5006C22.1596 27.3455 21.8325 27.4809 21.5914 27.722C21.3503 27.9632 21.2148 28.2902 21.2148 28.6312C21.2148 28.9722 21.3503 29.2992 21.5914 29.5403C21.8325 29.7814 22.1596 29.9169 22.5006 29.9169H25.7148V33.1312C25.7148 33.4722 25.8503 33.7992 26.0914 34.0403C26.3325 34.2814 26.6596 34.4169 27.0006 34.4169C27.3416 34.4169 27.6686 34.2814 27.9097 34.0403C28.1508 33.7992 28.2863 33.4722 28.2863 33.1312V29.9169H31.5006C31.8416 29.9169 32.1686 29.7814 32.4097 29.5403C32.6508 29.2992 32.7863 28.9722 32.7863 28.6312C32.7863 28.2902 32.6508 27.9632 32.4097 27.722C32.1686 27.4809 31.8416 27.3455 31.5006 27.3455Z" fill="#6DA015"/>
<path d="M27.0008 3.55933C22.1693 3.55933 17.4463 4.99204 13.4291 7.67628C9.4118 10.3605 6.28073 14.1757 4.43179 18.6395C2.58285 23.1032 2.09908 28.015 3.04166 32.7537C3.98425 37.4924 6.31084 41.8451 9.72724 45.2615C13.1436 48.6779 17.4964 51.0045 22.2351 51.9471C26.9737 52.8897 31.8855 52.4059 36.3493 50.557C40.813 48.708 44.6282 45.5769 47.3125 41.5597C49.9967 37.5424 51.4294 32.8194 51.4294 27.9879C51.4223 21.5112 48.8463 15.3019 44.2666 10.7222C39.6869 6.14248 33.4775 3.56647 27.0008 3.55933ZM27.0008 49.845C22.6779 49.845 18.4521 48.5631 14.8577 46.1614C11.2633 43.7598 8.4618 40.3461 6.80748 36.3523C5.15317 32.3584 4.72032 27.9636 5.56368 23.7238C6.40705 19.4839 8.48874 15.5893 11.5455 12.5326C14.6023 9.47579 18.4969 7.3941 22.7367 6.55073C26.9766 5.70737 31.3713 6.14022 35.3652 7.79453C39.3591 9.44885 42.7727 12.2503 45.1744 15.8447C47.5761 19.4391 48.858 23.665 48.858 27.9879C48.8515 33.7828 46.5467 39.3385 42.449 43.4361C38.3514 47.5337 32.7957 49.8386 27.0008 49.845Z" fill="#6DA015"/>
</svg>
