<svg width="54" height="55" viewBox="0 0 54 55" fill="none" xmlns="http://www.w3.org/2000/svg">
<path d="M50.2086 24.1265C50.0163 18.257 47.5912 12.6821 43.4282 8.53991C39.0382 4.14903 33.2037 1.73169 27.0004 1.73169C14.4716 1.73169 4.23437 11.704 3.79309 24.1265C2.82703 24.5544 2.00581 25.2533 1.42894 26.1386C0.852075 27.0238 0.544319 28.0573 0.542969 29.1139V35.2412C0.544532 36.6881 1.12001 38.0753 2.14312 39.0984C3.16624 40.1216 4.55344 40.697 6.00034 40.6986C6.93651 40.6975 7.834 40.3251 8.49597 39.6631C9.15794 39.0012 9.53032 38.1037 9.53144 37.1675V27.1868C9.53144 25.3584 8.12912 23.8675 6.34628 23.6903C7.00441 12.8675 16.014 4.26294 27.0004 4.26294C32.5287 4.26294 37.727 6.41788 41.6395 10.3303C45.2322 13.923 47.3348 18.6058 47.6512 23.6911C45.8701 23.87 44.4703 25.3601 44.4703 27.1868V37.1667C44.4703 39.0103 45.8945 40.5104 47.6985 40.6665V43.1885C47.6969 44.5541 47.1537 45.8633 46.188 46.8288C45.2223 47.7944 43.913 48.3374 42.5474 48.3388H38.7328C38.4756 47.589 37.9901 46.9385 37.3444 46.4788C36.6986 46.0191 35.9252 45.7731 35.1325 45.7754H31.2006C30.6362 45.7754 30.0945 45.8953 29.5983 46.1264C28.934 46.4333 28.3713 46.9239 27.9767 47.5401C27.582 48.1563 27.3718 48.8726 27.3708 49.6044C27.3708 50.6287 27.7699 51.5906 28.493 52.3103C28.8474 52.6676 29.2693 52.9509 29.7341 53.1438C30.1989 53.3367 30.6974 53.4354 31.2006 53.4342H35.1325C36.7626 53.4342 38.1995 52.3803 38.7353 50.87H42.5474C46.7838 50.87 50.2297 47.4241 50.2297 43.1885V40.216C51.19 39.7856 52.0056 39.087 52.5783 38.2042C53.151 37.3214 53.4564 36.2919 53.4579 35.2395V29.1122C53.4579 26.8898 52.1197 24.9762 50.2086 24.1265ZM6.99934 27.1868V37.1667C6.99934 37.7176 6.55131 38.1665 5.9995 38.1665C5.22372 38.1656 4.47997 37.857 3.9314 37.3085C3.38284 36.7599 3.07427 36.0162 3.07337 35.2404V29.1131C3.07427 28.3373 3.38284 27.5935 3.9314 27.045C4.47997 26.4964 5.22372 26.1878 5.9995 26.1869C6.55131 26.1869 6.99934 26.6358 6.99934 27.1868ZM36.4023 49.8761C36.3395 50.1666 36.1792 50.427 35.9481 50.6141C35.717 50.8011 35.429 50.9036 35.1317 50.9046H31.1998C30.8538 50.9046 30.529 50.7696 30.2809 50.5215C30.1602 50.4017 30.0645 50.259 29.9993 50.1019C29.9341 49.9447 29.9008 49.7762 29.9012 49.6061C29.9021 49.262 30.0393 48.9323 30.2826 48.6891C30.526 48.446 30.8557 48.309 31.1998 48.3084H35.1317C35.4776 48.3084 35.8024 48.4425 36.0497 48.6906C36.2943 48.9344 36.4293 49.2601 36.4293 49.6061C36.4302 49.6989 36.4201 49.7917 36.4023 49.8761ZM50.9267 35.2404C50.9258 36.0162 50.6172 36.7599 50.0686 37.3085C49.5201 37.857 48.7763 38.1656 48.0005 38.1665C47.7354 38.1663 47.4812 38.0609 47.2938 37.8734C47.1063 37.6859 47.0009 37.4318 47.0007 37.1667V27.1868C47.0007 26.6358 47.4487 26.1869 48.0005 26.1869C48.7763 26.1878 49.5201 26.4964 50.0686 27.045C50.6172 27.5935 50.9258 28.3373 50.9267 29.1131V35.2404Z" fill="#6DA015"/>
<path d="M35.195 35.6768C36.6168 35.6753 37.98 35.1098 38.9854 34.1044C39.9908 33.099 40.5563 31.7358 40.5578 30.314V19.3866C40.5578 17.9572 39.9993 16.6106 38.9851 15.5964C37.9709 14.5822 36.6251 14.0237 35.195 14.0237H18.8043C17.3824 14.0252 16.0193 14.5908 15.0139 15.5962C14.0085 16.6016 13.443 17.9647 13.4414 19.3866V30.314C13.443 31.7358 14.0085 33.099 15.0139 34.1044C16.0193 35.1098 17.3824 35.6753 18.8043 35.6768H18.9047V38.5085C18.903 38.8542 18.9697 39.1969 19.101 39.5168C19.2322 39.8367 19.4254 40.1275 19.6694 40.3724C19.9134 40.6174 20.2035 40.8117 20.5229 40.9442C20.8422 41.0767 21.1847 41.1447 21.5304 41.1443C21.876 41.145 22.2181 41.0761 22.5364 40.9418C22.8548 40.8074 23.1428 40.6103 23.3833 40.3622L28.094 35.6768H35.195ZM26.6807 33.5135L21.5828 38.5836C21.56 38.6072 21.5431 38.6249 21.495 38.6038C21.4368 38.5802 21.4368 38.5422 21.4368 38.5085V34.4112C21.4368 34.0755 21.3034 33.7536 21.0661 33.5163C20.8287 33.2789 20.5068 33.1456 20.1712 33.1456H18.8051C18.0544 33.1447 17.3347 32.8461 16.8039 32.3152C16.273 31.7844 15.9744 31.0647 15.9735 30.314V19.3866C15.9744 18.6358 16.273 17.9161 16.8039 17.3853C17.3347 16.8544 18.0544 16.5558 18.8051 16.5549H35.1958C35.9501 16.5549 36.6597 16.8502 37.1963 17.386C37.733 17.9227 38.0274 18.6331 38.0274 19.3866V30.314C38.0265 31.0647 37.7279 31.7844 37.1971 32.3152C36.6662 32.8461 35.9465 33.1447 35.1958 33.1456H27.5734C27.2384 33.1456 26.9178 33.2781 26.6807 33.5135Z" fill="#6DA015"/>
<path d="M20.8516 23.1848C19.8222 23.1848 18.9844 24.0235 18.9844 25.052C18.9844 26.0806 19.8231 26.9193 20.8516 26.9193C21.8818 26.9193 22.7205 26.0806 22.7205 25.052C22.7205 24.0235 21.8827 23.1848 20.8516 23.1848ZM26.9992 23.1848C25.9698 23.1848 25.1319 24.0235 25.1319 25.052C25.1319 26.0806 25.9706 26.9193 26.9992 26.9193C28.0302 26.9193 28.8681 26.0806 28.8681 25.052C28.8681 24.0235 28.0302 23.1848 26.9992 23.1848ZM33.1467 23.1848C32.1173 23.1848 31.2795 24.0235 31.2795 25.052C31.2795 26.0806 32.1182 26.9193 33.1467 26.9193C34.1769 26.9193 35.0156 26.0806 35.0156 25.052C35.0156 24.0235 34.1769 23.1848 33.1467 23.1848Z" fill="#6DA015"/>
</svg>
