<svg width="54" height="55" viewBox="0 0 54 55" fill="none" xmlns="http://www.w3.org/2000/svg">
<path d="M27.2912 51.967H26.7102C26.1684 51.9674 25.6309 51.8701 25.1236 51.68C19.5237 49.5849 15.0241 46.1895 11.7495 41.5881C9.17809 37.9747 7.39458 33.6551 6.44863 28.7495C4.88836 20.658 6.15182 13.644 6.20637 13.3494C6.48573 11.8409 7.49757 10.5873 8.91307 9.99594L25.2553 3.16855C25.8111 2.93633 26.3983 2.8186 27.0007 2.8186C27.6031 2.8186 28.1903 2.93633 28.7461 3.16852L45.0883 9.99591C46.5038 10.5873 47.5156 11.8409 47.7949 13.3493C47.8495 13.644 49.1128 20.6588 47.5527 28.7494C46.6067 33.6551 44.8232 37.9746 42.2518 41.5881C38.9773 46.1895 34.4776 49.5849 28.8777 51.6799C28.3704 51.8701 27.833 51.9674 27.2912 51.967ZM27.0007 4.5061C26.6247 4.50572 26.2525 4.58034 25.9058 4.72561L9.56357 11.553C8.67563 11.924 8.0409 12.7104 7.86566 13.6566C7.81348 13.9384 6.60502 20.648 8.1056 28.4299C9.00549 33.0967 10.6941 37.1945 13.1244 40.6097C16.2001 44.9317 20.4362 48.1245 25.7149 50.0995C26.0331 50.2187 26.3703 50.2797 26.7101 50.2795H27.2912C27.6322 50.2795 27.967 50.2189 28.2865 50.0994C33.5652 48.1245 37.8012 44.9317 40.8769 40.6097C43.3073 37.1945 44.9958 33.0967 45.8957 28.4299C47.3962 20.6488 46.1878 13.9384 46.1357 13.6565C45.9604 12.7104 45.3257 11.924 44.4377 11.553L28.0956 4.72558C27.7488 4.58033 27.3766 4.50572 27.0007 4.5061Z" fill="#6DA015"/>
<path d="M27.292 48.2825H26.7109C26.6099 48.2825 26.5098 48.2644 26.4153 48.229C21.5165 46.3963 17.5924 43.4431 14.7519 39.4516C12.4885 36.271 10.9122 32.4354 10.0668 28.0514C9.31943 24.1756 9.29348 20.5759 9.4033 18.2386C9.52267 15.6988 9.81711 14.087 9.82958 14.0197C9.8551 13.8818 9.91459 13.7525 10.0027 13.6434C10.0907 13.5343 10.2046 13.4489 10.334 13.3948L26.6761 6.56742C26.7792 6.52437 26.8897 6.5022 27.0014 6.5022C27.113 6.5022 27.2236 6.52437 27.3266 6.56742L43.6688 13.3948C43.7982 13.4489 43.912 13.5343 44.0001 13.6434C44.0882 13.7525 44.1477 13.8818 44.1732 14.0197C44.1857 14.0871 44.4801 15.6988 44.5995 18.2386C44.7093 20.5759 44.6834 24.1756 43.936 28.0514C43.0906 32.4354 41.5143 36.271 39.2509 39.4516C36.4104 43.4431 32.4863 46.3963 27.5875 48.229C27.493 48.2644 27.3929 48.2825 27.292 48.2825ZM26.8647 46.595H27.1381C35.3757 43.463 40.4692 37.1175 42.279 27.7319C43.4396 21.7136 42.8111 16.319 42.5845 14.7706L27.0014 8.26037L11.4181 14.7707C11.3249 15.4045 11.1639 16.6813 11.0866 18.3688C10.9837 20.6154 11.0125 24.0719 11.7334 27.7814C13.5521 37.14 18.6422 43.4688 26.8647 46.595Z" fill="#6DA015"/>
<path d="M31.067 37.8369H22.9338C20.7496 37.8369 18.9727 36.0599 18.9727 33.8755V27.2663C18.9727 25.082 20.7496 23.3049 22.9338 23.3049H31.067C33.2512 23.3049 35.0281 25.082 35.0281 27.2663V33.8755C35.0282 36.0599 33.2512 37.8369 31.067 37.8369ZM22.9338 24.9924C21.6801 24.9924 20.6602 26.0125 20.6602 27.2663V33.8755C20.6602 35.1294 21.6801 36.1494 22.9338 36.1494H31.067C32.3207 36.1494 33.3406 35.1294 33.3406 33.8755V27.2663C33.3406 26.0125 32.3207 24.9924 31.067 24.9924H22.9338ZM27.0004 31.5792C25.7114 31.5792 24.6627 30.5305 24.6627 29.2415C24.6627 27.9523 25.7114 26.9035 27.0004 26.9035C28.2894 26.9035 29.3381 27.9523 29.3381 29.2415C29.3381 30.5305 28.2894 31.5792 27.0004 31.5792ZM27.0004 28.591C26.6419 28.591 26.3502 28.8828 26.3502 29.2415C26.3502 29.6 26.6419 29.8917 27.0004 29.8917C27.3589 29.8917 27.6506 29.6 27.6506 29.2415C27.6506 28.8828 27.359 28.591 27.0004 28.591Z" fill="#6DA015"/>
<path d="M32.2547 24.9932C31.7887 24.9932 31.411 24.6155 31.411 24.1495V21.5651C31.411 19.1331 29.4324 17.1545 27.0004 17.1545C24.5684 17.1545 22.5898 19.1331 22.5898 21.5651V24.1495C22.5898 24.6155 22.2121 24.9932 21.7461 24.9932C21.2801 24.9932 20.9023 24.6155 20.9023 24.1495V21.5651C20.9023 19.9363 21.5367 18.4049 22.6884 17.2531C23.8402 16.1014 25.3716 15.467 27.0004 15.467C28.6292 15.467 30.1606 16.1014 31.3124 17.2531C32.4642 18.4049 33.0985 19.9363 33.0985 21.5651V24.1495C33.0985 24.6155 32.7207 24.9932 32.2547 24.9932ZM27.0004 34.0982C26.5344 34.0982 26.1567 33.7205 26.1567 33.2545V30.7361C26.1567 30.2702 26.5344 29.8924 27.0004 29.8924C27.4664 29.8924 27.8442 30.2702 27.8442 30.7361V33.2545C27.8442 33.7205 27.4664 34.0982 27.0004 34.0982Z" fill="#6DA015"/>
</svg>
