<svg width="54" height="55" viewBox="0 0 54 55" fill="none" xmlns="http://www.w3.org/2000/svg">
<g clip-path="url(#clip0_19607_1048)">
<path d="M16.4531 39.8212C15.8709 39.8212 15.3984 40.2937 15.3984 40.8759C15.3984 41.4581 15.8709 41.9306 16.4531 41.9306C17.0353 41.9306 17.5078 41.4581 17.5078 40.8759C17.5078 40.2937 17.0353 39.8212 16.4531 39.8212Z" fill="#6DA015"/>
<path d="M47.4762 20.8367L53.6913 14.6216C53.8198 14.493 53.913 14.3335 53.9617 14.1583C54.0103 13.9832 54.013 13.7985 53.9692 13.622C53.9255 13.4456 53.8369 13.2835 53.712 13.1514C53.5871 13.0193 53.4303 12.9217 53.2566 12.8681L38.1218 8.19685C36.7575 3.81135 32.7024 0.797791 28.0547 0.797791C23.7343 0.797791 19.8703 3.43082 18.2711 7.40277L0.740729 12.869C0.567435 12.923 0.411021 13.0209 0.286619 13.1531C0.162218 13.2853 0.0740408 13.4473 0.0306191 13.6236C-0.0128025 13.7998 -0.00999876 13.9843 0.0387591 14.1592C0.087517 14.334 0.180578 14.4933 0.30894 14.6217L6.68758 21.0003L2.66458 27.7055C2.58334 27.8409 2.53355 27.9929 2.51889 28.1501C2.50422 28.3074 2.52506 28.4659 2.57986 28.6141C2.63465 28.7622 2.72201 28.8961 2.83549 29.006C2.94897 29.1158 3.08566 29.1988 3.23549 29.2487L9.07033 31.1936V47.4149C9.07034 47.6296 9.13587 47.8391 9.25817 48.0156C9.38046 48.1921 9.55369 48.327 9.75472 48.4024C13.3224 49.7401 26.5783 54.7117 26.6494 54.7369C26.8672 54.8142 27.1044 54.8175 27.3242 54.7463C27.3273 54.7453 27.3305 54.7446 27.3335 54.7436L46.3179 48.4155C46.5279 48.3454 46.7105 48.2111 46.84 48.0316C46.9694 47.852 47.0391 47.6362 47.0391 47.4149V30.7592L53.2615 28.8039C53.4345 28.7495 53.5906 28.6515 53.7146 28.5192C53.8387 28.387 53.9265 28.225 53.9697 28.0489C54.0129 27.8728 54.01 27.6885 53.9612 27.5139C53.9124 27.3392 53.8194 27.1801 53.6912 27.0519L47.4762 20.8367ZM38.6016 11.3447C38.6016 11.0767 38.5903 10.8093 38.5702 10.5428L50.9621 14.3676L45.6995 19.6301L37.1009 16.7642C38.0746 15.1367 38.6016 13.2587 38.6016 11.3447ZM20.0736 8.59952C21.2444 5.19478 24.4518 2.90717 28.0547 2.90717C31.9361 2.90717 35.3024 5.53249 36.241 9.2914C36.4082 9.96301 36.4925 10.6526 36.4922 11.3447C36.4922 13.3036 35.8421 15.1397 34.6119 16.6552C33.0007 18.6425 30.6106 19.7822 28.0547 19.7822C25.2919 19.7822 22.7004 18.426 21.1219 16.1536C20.1376 14.7397 19.6172 13.0767 19.6172 11.3447C19.6172 10.4027 19.7707 9.47913 20.0736 8.59952ZM3.03383 14.3635L17.6202 9.81526C17.546 10.3217 17.5084 10.8328 17.5078 11.3446C17.5078 13.0427 17.9101 14.6875 18.6768 16.1715L8.30052 19.6301L3.03383 14.3635ZM5.14985 27.6633L8.48477 22.1049L25.4191 27.7497L22.0843 33.3081L5.14985 27.6633ZM25.9453 52.2212L11.1797 46.6841V31.8967C22.7971 35.7487 22.2298 35.6311 22.5532 35.6311C22.9158 35.6311 23.2631 35.4434 23.4579 35.1189L25.9453 30.9728V52.2212ZM27 26.0532L11.351 20.837L19.8722 17.9967C21.8666 20.4485 24.869 21.8915 28.0547 21.8915C31.0017 21.8915 33.7714 20.6788 35.7636 18.542L42.6491 20.8369L27 26.0532ZM44.9297 46.6548L28.0547 52.2797V30.1714L31.7937 34.8447C31.9265 35.0107 32.1065 35.1327 32.3099 35.1947C32.5133 35.2567 32.7306 35.2557 32.9335 35.192L44.9297 31.4222V46.6548ZM32.9898 32.9633L28.7685 27.6872L45.6995 22.0435L50.9692 27.3132L32.9898 32.9633Z" fill="#6DA015"/>
<path d="M23.1521 42.1623L20.8064 41.2827C20.261 41.0783 19.6531 41.3545 19.4485 41.8999C19.244 42.4454 19.5203 43.0533 20.0657 43.2578L22.4113 44.1374C22.9579 44.3423 23.5651 44.0647 23.7693 43.5202C23.9738 42.9749 23.6974 42.3668 23.1521 42.1623ZM23.1519 46.668L16.8238 44.2949C16.2784 44.0904 15.6705 44.3667 15.4659 44.9121C15.2613 45.4575 15.5377 46.0655 16.0831 46.27L22.4112 48.6431C22.5296 48.6876 22.655 48.7105 22.7814 48.7106C23.2085 48.7106 23.6103 48.4493 23.7691 48.0259C23.9738 47.4804 23.6974 46.8725 23.1519 46.668ZM34.0744 7.43485C33.6625 7.02289 32.9947 7.02299 32.5828 7.43485L27.0004 13.0173L25.6368 11.6537C25.2249 11.2418 24.5571 11.2418 24.1451 11.6537C23.7332 12.0656 23.7333 12.7334 24.1451 13.1453L26.2546 15.2546C26.6665 15.6665 27.3343 15.6665 27.7463 15.2546L34.0744 8.92649C34.4862 8.51464 34.4862 7.84681 34.0744 7.43485Z" fill="#6DA015"/>
</g>
<defs>
<clipPath id="clip0_19607_1048">
<rect width="54" height="54" fill="white" transform="translate(0 0.797607)"/>
</clipPath>
</defs>
</svg>
